<svg width="1024" height="512" viewBox="0 0 1024 512" fill="none" xmlns="http://www.w3.org/2000/svg">
<g clip-path="url(#clip0_4405_1736)">
<path d="M704.11 225.208C707.665 224.817 712.17 225.059 715.605 225.277C751.645 227.569 775.41 258.079 770.71 293.565C768.55 309.868 764.97 320.105 751.74 331.28C739.675 341.419 725.12 345.945 709.415 344.513C694.815 343.181 686.785 338.175 677.625 327.267L676.945 326.439C675.9 326.76 676.255 329.767 676.27 331.013C676.565 354.648 679.85 377.117 649.065 380.763L649.04 312.069C649 289.01 645.98 266.018 661.525 246.846C673.015 232.675 686.275 227.075 704.11 225.208ZM713.755 319.049C732.555 316.991 746.145 300.106 744.135 281.302C742.125 262.497 725.27 248.866 706.46 250.83C687.585 252.8 673.895 269.724 675.915 288.596C677.93 307.468 694.89 321.115 713.755 319.049Z" fill="white"/>
<path d="M833.345 225.202C850.11 222.79 871.295 229.549 883.365 241.665C901.845 260.217 900 280.154 900.065 304.175L900.185 341.965L875.055 342.025C875.08 334.749 875.065 327.474 875.015 320.199C870.68 328.528 867.8 332.716 859.91 338.029C855.185 341.345 848.495 343.337 842.685 344.142C778.135 353.086 754.045 266.949 805.49 233.931C814.375 228.231 822.77 226.515 833.345 225.202ZM843.25 319.025C861.925 316.804 875.335 299.977 873.335 281.28C871.335 262.583 854.665 248.974 835.945 250.754C823.64 251.925 812.915 259.621 807.86 270.904C802.81 282.187 804.215 295.315 811.54 305.274C818.865 315.233 830.975 320.485 843.25 319.025Z" fill="white"/>
<path d="M185.659 224.39C219.179 220.825 249.231 245.135 252.748 278.66C256.264 312.185 231.91 342.202 198.38 345.669C164.92 349.129 134.978 324.837 131.469 291.381C127.96 257.925 152.209 227.949 185.659 224.39ZM196.25 319.203C215.219 316.886 228.705 299.612 226.351 280.648C223.997 261.684 206.698 248.231 187.738 250.62C168.83 253.004 155.421 270.246 157.768 289.16C160.115 308.073 177.333 321.515 196.25 319.203Z" fill="white"/>
<path d="M569.22 225.21C596.49 222.761 620.955 237.132 630.915 262.519C635.305 273.711 634.7 282.698 634.795 294.469L541.145 294.522C546.73 318.352 571.98 325.438 592.59 315.695C595.815 314.171 598.535 311.495 601.1 309.06L615.75 308.986L630.92 309.033C628.16 314.629 625.605 319.007 621.55 323.836C611.415 335.772 596.935 343.174 581.325 344.4C563.07 345.96 546.72 342.745 532.515 330.753C521.345 321.166 514.39 307.577 513.145 292.911C510.16 255.389 531 228.073 569.22 225.21ZM541.465 273.013L576.25 273.028C585.705 273.029 596.785 273.31 606.11 272.9C600.32 257.64 589.295 249.639 572.815 249.714C557.66 250.858 546.37 258.242 541.465 273.013Z" fill="white"/>
<path d="M367.899 189.962C376.369 190.328 386.431 190.086 395.019 190.094C394.897 202.762 394.926 215.431 395.104 228.098C414.573 228.411 434.474 228.016 454.027 228.166C453.954 236.388 453.967 244.61 454.065 252.832C436.272 251.949 413.293 252.6 395.117 252.637C394.68 268.961 394.689 286.778 395.419 303.02C396.336 323.41 431.024 326.835 433.483 303.124C433.711 300.3 433.599 297.837 433.518 295.017L461.069 295.044C461.192 324.392 448.18 343.802 416.796 344.364C402.162 344.625 391.001 342.746 380.109 332.189C364.282 316.848 368.092 290.391 368.031 269.879L367.899 189.962Z" fill="white"/>
<path d="M264 190.117L291.051 190.195C290.865 201.724 290.721 216.735 291.329 228.102L349.988 228.132L349.994 252.935C343.431 252.44 334.897 252.62 328.24 252.609L291.25 252.685C291.388 263.645 291.425 274.605 291.362 285.565C291.359 292.894 290.381 305.28 294.246 311.46C296.636 315.264 300.457 317.946 304.848 318.899C317.581 321.612 327.349 316.247 329.969 303.054L329.959 295.108C339.127 295.176 348.296 295.156 357.463 295.047L357.471 295.375C357.697 308.823 354.812 321.685 345.422 331.725C329.521 348.726 293.117 349.023 276.632 332.78C271.128 327.477 266.956 319.71 265.732 312.083C263.577 298.655 264.309 283.536 264.247 269.864L264 190.117Z" fill="white"/>
<path d="M472.095 190.026L499.389 190.082C499.068 203.333 499.463 218.059 499.425 231.512L499.497 341.991L472.095 342.027C472.79 292.336 472.386 239.794 472.095 190.026Z" fill="white"/>
<path d="M0 208.162C4.91678 199.756 9.604 193.64 19.7136 190.993C21.9411 190.397 24.2247 190.036 26.5273 189.916C26.3212 201.157 26.1838 212.4 26.1151 223.643C26.0548 230.636 25.7002 236.838 26.3143 243.909C35.4367 233.12 45.0989 226.752 59.6895 225.28C85.331 222.692 110.509 238.975 118.217 263.613C119.76 268.543 120.231 274.034 120.729 279.157C124.709 325.019 85.187 353.08 42.2441 342.834C24.5708 338.693 10.0269 325.598 3.29259 308.72C2.22121 306.035 1.18656 301.687 0 299.285V208.162ZM63.3965 319.362C82.2945 317.469 96.1395 300.704 94.426 281.789C92.7125 262.874 76.08 248.871 57.1495 250.405C37.9634 251.96 23.7293 268.866 25.466 288.037C27.2028 307.207 44.2434 321.28 63.3965 319.362Z" fill="white"/>
<path d="M996.51 227.851C1002.99 227.365 1017.37 227.688 1024 227.934V346.924C1022.45 348.823 1019.9 361.152 1017.24 365.553C1001.23 392.074 960.34 396.501 934.93 382.056C921.92 374.66 916.115 365.055 912.185 350.964C921.27 350.888 930.355 350.868 939.435 350.904C942.67 355.921 946.385 361.063 952.16 363.378C963.46 367.907 980.84 367.252 989.57 357.869C997.435 349.42 996.73 336.474 996.535 325.839C994.655 328.117 992.7 330.527 990.66 332.6C974.215 349.348 942.895 345.548 927.15 329.625C909.145 311.415 911.56 291.056 911.56 267.901V228.001C920.595 228.127 929.885 228.015 938.935 228.016L938.765 267.546C938.73 281.155 936.68 300.231 946.945 310.013C962.265 324.615 991.81 318.365 995.68 295.959C997.175 287.311 996.51 278.722 996.51 270.248V227.851Z" fill="white"/>
</g>
<defs>
<clipPath id="clip0_4405_1736">
<rect width="1024" height="512" fill="white"/>
</clipPath>
</defs>
</svg>
