<svg width="800" height="139" viewBox="0 0 800 139" fill="none" xmlns="http://www.w3.org/2000/svg">
<path d="M447.479 1.04031C485.249 -5.54834 521.171 19.8499 527.55 57.657C533.93 95.4632 508.334 131.244 470.492 137.415C432.946 143.537 397.505 118.183 391.174 80.6712C384.844 43.1593 410.001 7.57818 447.479 1.04031ZM465.834 110.198C477.471 106.527 485.245 103.874 490.827 92.0655C499.934 72.7998 495.913 49.2928 482.224 33.9506C471.661 29.8927 464.629 27.1523 453.057 28.546C441.963 31.8676 433.971 33.7184 428.683 45.1249C414.757 75.1584 426.471 115.567 465.834 110.198Z" fill="#2E2E2D"/>
<path d="M717.391 1.414C754.861 -5.71822 791.018 18.8778 798.147 56.3492C805.274 93.8197 780.672 129.974 743.2 137.096C705.735 144.217 669.591 119.621 662.464 82.1584C655.339 44.6945 679.928 8.54622 717.391 1.414ZM736.1 110.546C743.508 108.375 750.4 106.085 756.008 100.428C773.985 82.2957 771.776 44.1838 747.645 32.1538C741.141 28.9648 733.869 27.6802 726.667 28.4466C721.966 29.5206 716.323 30.6162 712.109 32.878C686.588 46.5744 687.068 95.4024 714.413 106.96C721.644 110.016 728.254 110.967 736.1 110.546Z" fill="#2E2E2D"/>
<path d="M151.56 1.25337C189.229 -5.19704 224.964 20.2077 231.246 57.9058C237.527 95.6029 211.962 131.224 174.237 137.335C136.75 143.41 101.403 118.042 95.1618 80.5814C88.9193 43.1222 114.129 7.66334 151.56 1.25337ZM166.701 110.794C196.158 106.117 201.196 83.1798 197.981 57.3923C195.396 36.6539 178.323 26.4738 158.492 28.523C146.885 30.9643 139.063 33.7461 132.793 44.5884C115.303 74.8363 129.926 110.991 166.701 110.794Z" fill="#2E2E2D"/>
<path d="M537.3 1.53404C570.782 0.905836 611.978 -4.27689 636.942 22.2526C662.962 49.9013 662.864 92.5253 634.833 118.905C616.069 133.378 605.579 136.553 581.877 136.549C566.483 136.547 550.647 136.616 535.215 136.617C534.296 116.123 534.983 93.0999 534.691 72.5506C534.553 62.8369 532.878 6.53337 537.3 1.53404ZM609.675 103.002C619.1 94.9901 622.662 86.8385 623.369 74.6392C625.167 43.6107 613.608 29.9811 583.44 28.2469C579.256 28.0024 575.068 27.866 570.877 27.8378L566.355 28.6099C563.727 32.6331 564.958 100.989 564.839 110.834C581.261 111.272 595.582 112.915 609.675 103.002Z" fill="#2E2E2D"/>
<path d="M311.41 82.7074C314.407 75.2141 351.364 7.06676 354.226 4.3019C359.677 -0.964507 376.877 1.29156 384.277 1.56711L384.163 136.723C374.611 136.765 365.061 136.543 355.522 136.056C355.381 121.541 355.377 107.023 355.512 92.5067C355.698 77.6159 355.58 66.8602 354.148 52.2102C349.238 69.9364 333.439 100.163 323.468 116.711C313.22 122.293 310.682 121.561 299.957 118.79C292.053 96.7734 274.971 75.7087 265.519 52.64C265.06 80.566 265.866 108.414 265.255 136.787C256.171 136.53 248.695 136.635 239.604 136.997C238.056 110.939 238.727 83.1569 238.662 56.9377C238.631 44.5175 237.535 14.2977 239.523 3.68873C241.716 1.49095 242.119 2.06462 245.819 1.39127C252.189 1.34895 265.25 0.394399 268.997 6.30218C284.005 29.9615 299.095 57.6882 311.41 82.7074Z" fill="#2E2E2D"/>
<path d="M18.5799 1.54157L29.4927 1.66383C28.9284 8.61737 29.2773 52.4771 31.3773 56.1429C43.6405 53.6132 63.2023 17.6238 73.5076 8.23553C83.4912 -0.859367 97.8807 1.59047 111.161 2.05598C104.392 20.8119 77.0925 48.4239 63.4412 65.3977C78.4223 82.4289 92.3322 100.374 105.09 119.129C106.979 121.664 115.069 133.142 114.737 135.369C108.543 138.899 86.1865 136.025 78.9809 133.591C70.7314 123.72 43.5784 79.5455 31.7393 79.8982L30.4651 81.2759C29.171 87.1648 29.1174 130.067 29.6582 136.464L1.12874 136.514C-0.633911 125.28 0.176831 99.9932 0.24473 87.6708C0.401312 59.2472 0.021474 30.0864 0.868237 1.73716L18.5799 1.54157Z" fill="#2E2E2D"/>
</svg>
