<?xml version="1.0" encoding="utf-8"?>
<!-- Generator: Adobe Illustrator 19.2.1, SVG Export Plug-In . SVG Version: 6.00 Build 0)  -->
<svg version="1.1" id="layer" xmlns="http://www.w3.org/2000/svg" xmlns:xlink="http://www.w3.org/1999/xlink" x="0px" y="0px"
	 viewBox="0 0 652 652" style="enable-background:new 0 0 652 652;" xml:space="preserve">
<style type="text/css">
	.st0{fill:#030000;}
	.st1{fill:#63A70A;}
	.st2{fill:#CF0A2C;}
	.st3{fill:#007CBA;}
	.st4{fill:#EE7700;}
	.st5{fill:#FFFFFF;}
	.st6{fill:none;stroke:#CF0A2C;stroke-width:3.9918;stroke-miterlimit:10;}
	.st7{fill:none;stroke:#F3A24D;stroke-width:2.797;}
</style>
<g>
	<path class="st0" d="M27.6,438.8c4.4,0,6.1-1.3,6.1-4.4c0-3.2-1.8-4.3-6.1-4.3H25v8.8H27.6z M22.4,427.9h6.4c4.2,0,7.5,1.8,7.5,6.5
		c0,4.5-3,6.7-7.4,6.7h-6.5V427.9z"/>
	<path class="st0" d="M25.2,438.6h2.3c4.2,0,5.8-1.2,5.8-4.1c0-3-1.5-4-5.8-4h-2.3V438.6z M27.6,439.1h-2.9v-9.3h2.9
		c3.8,0,6.4,0.8,6.4,4.6C34,437.7,32,439.1,27.6,439.1 M22.7,440.8h6.2c4.5,0,7.1-2.3,7.1-6.4c0-5.4-4.5-6.2-7.2-6.2h-6.1V440.8z
		 M28.8,441.3h-6.7v-13.8h6.6c5,0,7.8,2.4,7.8,6.8C36.5,438.7,33.7,441.3,28.8,441.3"/>
	<rect x="39.1" y="427.9" class="st0" width="2.6" height="13.2"/>
	<path class="st0" d="M39.4,440.8h2v-12.6h-2V440.8z M42,441.3h-3.2v-13.8H42V441.3z"/>
	<polygon class="st0" points="45.4,427.9 48.1,427.9 57,437.4 57,427.9 59.4,427.9 59.4,441.1 57.1,441.1 47.9,431.2 47.9,441.1 
		45.4,441.1 	"/>
	<path class="st0" d="M57.2,440.8h1.9v-12.6h-1.9v10l-9.2-10h-2.3v12.6h1.9v-10.3L57.2,440.8z M59.7,441.3h-2.8l-8.8-9.4v9.4h-3
		v-13.8h3.1l8.4,9.1v-9.1h3V441.3z"/>
	<rect x="63.2" y="427.9" class="st0" width="2.6" height="13.2"/>
	<path class="st0" d="M63.4,440.8h2v-12.6h-2V440.8z M66,441.3h-3.2v-13.8H66V441.3z"/>
	<polygon class="st0" points="69.5,427.9 72.2,427.9 81,437.4 81,427.9 83.5,427.9 83.5,441.1 81.1,441.1 71.9,431.2 71.9,441.1 
		69.5,441.1 	"/>
	<path class="st0" d="M81.2,440.8h1.9v-12.6h-1.9v10l-9.2-10h-2.3v12.6h1.9v-10.3L81.2,440.8z M83.7,441.3H81l-8.8-9.4v9.4h-3v-13.8
		h3.1l8.4,9.1v-9.1h3V441.3z"/>
	<path class="st0" d="M100.6,434.3v6.9h-1.6l-0.5-1.4c-1,0.7-2.4,1.5-4.9,1.5c-3.4,0-7.5-1.6-7.5-6.9c0-3.5,2.1-6.9,7.4-6.9
		c3,0,6.3,1.1,7,4.4h-2.6c-0.3-0.7-1-2.2-4-2.2c-4.1,0-5.1,2.8-5.1,4.6c0,3.1,2.1,4.7,4.9,4.7c2.5,0,4-0.9,4.6-2.7h-4.6v-2.1H100.6z
		"/>
	<path class="st0" d="M93.6,427.8c-5.2,0-7.1,3.4-7.1,6.7c0,4.9,3.7,6.6,7.2,6.6c2.5,0,3.8-0.9,4.8-1.5l0.3-0.2l0.6,1.5h1.1v-6.3
		h-6.5v1.5h4.7l-0.1,0.4c-0.7,2-2.2,2.9-4.8,2.9c-3.2,0-5.2-1.9-5.2-5c0-2.4,1.4-4.9,5.4-4.9c3,0,3.9,1.5,4.2,2.2h2.1
		C99.2,428.1,94.9,427.8,93.6,427.8 M93.6,441.7c-3.7,0-7.7-1.9-7.7-7.2c0-3.3,2-7.2,7.7-7.2c4,0,6.7,1.7,7.3,4.7l0.1,0.3h-3.2
		l-0.1-0.2c-0.3-0.7-0.9-2.1-3.8-2.1c-4.5,0-4.8,3.3-4.8,4.3c0,2.7,1.8,4.4,4.6,4.4c2.2,0,3.5-0.7,4.2-2.2h-4.5V434h7.6v7.5h-2
		l-0.5-1.2C97.4,440.9,96,441.7,93.6,441.7"/>
	<path class="st0" d="M112.1,432c1.2,0,2.2,1,2.2,2.2c0,1.2-1,2.2-2.2,2.2c-1.2,0-2.2-1-2.2-2.2C109.9,433,110.8,432,112.1,432"/>
	<path class="st0" d="M112.1,432.3c-1.1,0-1.9,0.9-1.9,1.9c0,1.1,0.9,1.9,1.9,1.9c1.1,0,1.9-0.9,1.9-1.9
		C114,433.1,113.1,432.3,112.1,432.3 M112.1,436.7c-1.4,0-2.5-1.1-2.5-2.5c0-1.4,1.1-2.5,2.5-2.5c1.4,0,2.5,1.1,2.5,2.5
		C114.6,435.6,113.4,436.7,112.1,436.7"/>
	<polygon class="st0" points="124,427.9 126.5,427.9 126.5,433.1 135.4,433.1 135.4,427.9 138,427.9 138,441.1 135.4,441.1 
		135.4,435.4 126.5,435.4 126.5,441.1 124,441.1 	"/>
	<path class="st0" d="M135.7,440.8h2v-12.6h-2v5.2h-9.4v-5.2h-2v12.6h2v-5.7h9.4V440.8z M138.3,441.3h-3.2v-5.7h-8.3v5.7h-3.2v-13.8
		h3.2v5.2h8.3v-5.2h3.2V441.3z"/>
	<path class="st0" d="M153.8,434.4c0-3.2-2.3-4.7-5.3-4.7c-3,0-5.3,1.5-5.3,4.7c0,3.7,2.8,4.8,5.3,4.8
		C151,439.2,153.8,438.2,153.8,434.4 M148.5,427.5c5.8,0,7.9,3.4,7.9,7c0,2.7-1.6,6.8-7.9,6.8c-6.2,0-7.9-4.1-7.9-6.8
		C140.7,431,142.7,427.5,148.5,427.5"/>
	<path class="st0" d="M148.5,430c-3.2,0-5,1.6-5,4.4c0,3.9,3.1,4.5,5,4.5c1.9,0,5-0.6,5-4.5C153.5,431.6,151.7,430,148.5,430
		 M148.5,439.5c-1.7,0-5.6-0.5-5.6-5c0-3.1,2.1-5,5.6-5c3.5,0,5.6,1.9,5.6,5C154.1,439,150.2,439.5,148.5,439.5 M148.5,427.8
		c-6.8,0-7.6,4.7-7.6,6.7c0,1.1,0.4,6.5,7.6,6.5c7.2,0,7.6-5.4,7.6-6.5C156.1,432.5,155.4,427.8,148.5,427.8 M148.5,441.7
		c-6,0-8.1-3.8-8.1-7.1c0-4.6,3-7.3,8.1-7.3c5.1,0,8.1,2.7,8.1,7.3C156.7,437.8,154.5,441.7,148.5,441.7"/>
	<path class="st0" d="M169.4,431.9c-0.4-1.2-1.5-2.2-4.6-2.2c-1.7,0-3.5,0.4-3.5,1.7c0,0.6,0.3,1.2,3,1.5l3.1,0.5
		c3,0.5,4.7,1.6,4.7,3.8c0,3.1-3,4.3-6.5,4.3c-5.7,0-7-2.8-7.3-3.8l2.5-0.8c0.5,1,1.5,2.4,4.9,2.4c2.1,0,3.8-0.7,3.8-1.8
		c0-0.9-1-1.4-2.9-1.7l-3.2-0.4c-3-0.4-4.8-1.7-4.8-3.8c0-4,5.1-4,6.2-4c5.7,0,6.7,2.6,7,3.5L169.4,431.9z"/>
	<path class="st0" d="M158.5,437.8c0.4,1,1.9,3.3,7,3.3c2.3,0,6.2-0.5,6.2-4c0-1.9-1.5-3.1-4.5-3.5l-3.1-0.5
		c-2.3-0.3-3.2-0.8-3.2-1.8c0-1.2,1.4-1.9,3.8-1.9c2.6,0,4.1,0.7,4.8,2.1l1.9-0.6c-0.4-1-1.6-3.1-6.6-3.1c-2.2,0-5.9,0.5-5.9,3.7
		c0,1.8,1.6,3.1,4.5,3.5l3.2,0.4c2.1,0.3,3.1,0.9,3.1,1.9c0,1.3-1.7,2.1-4.1,2.1c-3.3,0-4.5-1.3-5.1-2.3L158.5,437.8z M165.5,441.7
		c-5.9,0-7.3-3.1-7.6-4l-0.1-0.3l3-0.9l0.1,0.2c0.5,1,1.5,2.2,4.7,2.2c2,0,3.6-0.7,3.6-1.5c0-0.9-1.6-1.2-2.6-1.4l-3.2-0.4
		c-3.2-0.4-5-1.9-5-4c0-2.7,2.3-4.2,6.4-4.2c5.9,0,6.9,2.8,7.3,3.7l0.1,0.3l-3,1l-0.1-0.3c-0.3-0.9-1.1-2-4.4-2
		c-1.6,0-3.2,0.4-3.2,1.4c0,0.3,0,0.9,2.7,1.2l3.1,0.5c3.3,0.5,4.9,1.9,4.9,4.1C172.3,440,169.8,441.7,165.5,441.7"/>
	<path class="st0" d="M182.6,433.7c1.5,0,2.8-0.1,2.8-1.8c0-1.7-1.3-1.8-2.8-1.8h-5.3v3.6H182.6z M174.6,427.9h7.3
		c2.2,0,5.9,0,5.9,4c0,4-3.7,4-5.9,4h-4.8v5.1h-2.6V427.9z"/>
	<path class="st0" d="M177.5,433.4h5c1.7,0,2.5-0.2,2.5-1.5c0-1.3-0.8-1.5-2.5-1.5h-5V433.4z M182.6,434h-5.6v-4.2h5.6
		c1.2,0,3,0,3,2.1C185.6,434,183.8,434,182.6,434 M174.9,440.8h2v-5.1h5.1c2.2,0,5.6,0,5.6-3.7c0-3.8-3.4-3.8-5.6-3.8h-7.1V440.8z
		 M177.5,441.3h-3.2v-13.8h7.6c2.2,0,6.2,0,6.2,4.3c0,4.3-4,4.3-6.2,4.3h-4.5V441.3z"/>
	<rect x="190.4" y="427.9" class="st0" width="2.6" height="13.2"/>
	<path class="st0" d="M190.7,440.8h2v-12.6h-2V440.8z M193.2,441.3h-3.2v-13.8h3.2V441.3z"/>
	<polygon class="st0" points="201.4,430.1 195.5,430.1 195.5,427.9 209.8,427.9 209.8,430.1 203.9,430.1 203.9,441.1 201.4,441.1 	
		"/>
	<path class="st0" d="M201.7,440.8h2v-11h5.9v-1.6h-13.8v1.6h5.9V440.8z M204.2,441.3h-3.2v-11h-5.9v-2.8h14.9v2.8h-5.9V441.3z"/>
	<path class="st0" d="M219.2,435.8l-2.8-5.9l-2.8,5.9H219.2z M214.9,427.9h2.9l6.4,13.2h-2.7l-1.4-3h-7.6l-1.4,3h-2.7L214.9,427.9z"
		/>
	<path class="st0" d="M214.1,435.5h4.6l-2.3-4.9L214.1,435.5z M219.6,436.1h-6.4l3.2-6.8L219.6,436.1z M221.8,440.8h2.1l-6.1-12.6
		h-2.6l-6.2,12.6h2.1l1.4-3h8L221.8,440.8z M224.7,441.3h-3.4l-1.4-3h-7.2l-1.4,3H208l6.8-13.8h3.3L224.7,441.3z"/>
	<polygon class="st0" points="226.4,427.9 229,427.9 229,438.8 238.6,438.8 238.6,441.1 226.4,441.1 	"/>
	<path class="st0" d="M226.7,440.8h11.6v-1.7h-9.6v-10.9h-2V440.8z M238.9,441.3h-12.7v-13.8h3.2v10.9h9.6V441.3z"/>
	<rect x="241.2" y="427.9" class="st0" width="2.6" height="13.2"/>
	<path class="st0" d="M241.4,440.8h2v-12.6h-2V440.8z M244,441.3h-3.2v-13.8h3.2V441.3z"/>
	<polygon class="st0" points="252.2,430.1 246.3,430.1 246.3,427.9 260.6,427.9 260.6,430.1 254.7,430.1 254.7,441.1 252.2,441.1 	
		"/>
	<path class="st0" d="M252.5,440.8h2v-11h5.9v-1.6h-13.8v1.6h5.9V440.8z M255,441.3h-3.2v-11H246v-2.8h14.9v2.8H255V441.3z"/>
	<polygon class="st0" points="268.2,435.8 261.8,427.9 264.9,427.9 269.5,433.5 274,427.9 277.2,427.9 270.8,435.8 270.8,441.1 
		268.2,441.1 	"/>
	<path class="st0" d="M268.5,440.8h2v-5.1l0.1-0.1l6.1-7.4h-2.4l-4.7,5.8l-4.7-5.8h-2.4l6.1,7.5V440.8z M271.1,441.3h-3.2v-5.5
		l-6.8-8.3h3.9l0.1,0.1l4.4,5.3l4.4-5.4h3.9l-6.8,8.3V441.3z"/>
	<path class="st0" d="M288,432c1.2,0,2.2,1,2.2,2.2c0,1.2-1,2.2-2.2,2.2c-1.2,0-2.2-1-2.2-2.2C285.8,433,286.8,432,288,432"/>
	<path class="st0" d="M288,432.3c-1.1,0-1.9,0.9-1.9,1.9c0,1.1,0.9,1.9,1.9,1.9c1.1,0,1.9-0.9,1.9-1.9
		C289.9,433.1,289.1,432.3,288,432.3 M288,436.7c-1.4,0-2.5-1.1-2.5-2.5c0-1.4,1.1-2.5,2.5-2.5c1.4,0,2.5,1.1,2.5,2.5
		C290.5,435.6,289.4,436.7,288,436.7"/>
	<polygon class="st0" points="299.9,427.9 311.8,427.9 311.8,430.1 302.5,430.1 302.5,433.1 310.5,433.1 310.5,435.4 302.5,435.4 
		302.5,438.8 312,438.8 312,441.1 299.9,441.1 	"/>
	<path class="st0" d="M300.2,440.8h11.5v-1.6h-9.5v-4.1h8v-1.6h-8v-3.6h9.3v-1.6h-11.3V440.8z M312.3,441.3h-12.6v-13.8H312v2.8
		h-9.3v2.5h8v2.8h-8v2.9h9.5V441.3z"/>
	<polygon class="st0" points="314.5,427.9 317.2,427.9 326,437.4 326,427.9 328.5,427.9 328.5,441.1 326.1,441.1 316.9,431.2 
		316.9,441.1 314.5,441.1 	"/>
	<path class="st0" d="M326.2,440.8h1.9v-12.6h-1.9v10l-9.2-10h-2.3v12.6h1.9v-10.3L326.2,440.8z M328.8,441.3H326l-0.1-0.1l-8.7-9.3
		v9.4h-3v-13.8h3.1l8.4,9.1v-9.1h3V441.3z"/>
	<polygon class="st0" points="336.7,430.1 330.8,430.1 330.8,427.9 345.2,427.9 345.2,430.1 339.3,430.1 339.3,441.1 336.7,441.1 	
		"/>
	<path class="st0" d="M337,440.8h2v-11h5.9v-1.6h-13.8v1.6h5.9V440.8z M339.6,441.3h-3.2v-11h-5.9v-2.8h14.9v2.8h-5.9V441.3z"/>
	<polygon class="st0" points="347.6,427.9 359.4,427.9 359.4,430.1 350.2,430.1 350.2,433.1 358.1,433.1 358.1,435.4 350.2,435.4 
		350.2,438.8 359.6,438.8 359.6,441.1 347.6,441.1 	"/>
	<path class="st0" d="M347.9,440.8h11.5v-1.6h-9.5v-4.1h8v-1.6h-8v-3.6h9.3v-1.6h-11.3V440.8z M359.9,441.3h-12.6v-13.8h12.4v2.8
		h-9.3v2.5h8v2.8h-8v2.9h9.5V441.3z"/>
	<path class="st0" d="M369.7,433.7c2.1,0,3.2-0.3,3.2-1.9c0-1.5-1.1-1.8-3.2-1.8h-5v3.7H369.7z M362.1,427.9h7.9
		c3.1,0,5.4,0.7,5.4,3.9c0,2.4-1.7,3.8-3.7,3.9l4,5.4h-3.2l-3.8-5.2h-4.1v5.2h-2.6V427.9z"/>
	<path class="st0" d="M365,433.4h4.7c2.2,0,2.9-0.4,2.9-1.6c0-1.2-0.7-1.6-2.9-1.6H365V433.4z M369.7,434h-5.3v-4.3h5.3
		c1.8,0,3.5,0.2,3.5,2.1C373.1,433.9,371.5,434,369.7,434 M372.8,440.8h2.5l-4-5.3l0.5,0c1.7-0.1,3.4-1.2,3.4-3.6
		c0-2.6-1.5-3.6-5.1-3.6h-7.6v12.6h2v-5.2h4.5L372.8,440.8z M376.4,441.3h-3.9l-3.8-5.2H365v5.2h-3.1v-13.8h8.2
		c2.8,0,5.7,0.5,5.7,4.2c0,2.5-1.7,3.8-3.4,4.1L376.4,441.3z"/>
	<polygon class="st0" points="383.4,430.1 377.5,430.1 377.5,427.9 391.9,427.9 391.9,430.1 386,430.1 386,441.1 383.4,441.1 	"/>
	<path class="st0" d="M383.7,440.8h2v-11h5.9v-1.6h-13.8v1.6h5.9V440.8z M386.3,441.3h-3.2v-11h-5.9v-2.8h14.9v2.8h-5.9V441.3z"/>
	<path class="st0" d="M401.2,435.8l-2.8-5.9l-2.8,5.9H401.2z M397,427.9h2.9l6.4,13.2h-2.7l-1.4-3h-7.6l-1.4,3h-2.7L397,427.9z"/>
	<path class="st0" d="M396.1,435.5h4.6l-2.3-4.9L396.1,435.5z M401.7,436.1h-6.4l3.2-6.8L401.7,436.1z M403.8,440.8h2.1l-6.1-12.6
		h-2.6l-6.2,12.6h2.1l1.4-3h8L403.8,440.8z M406.8,441.3h-3.4l-1.4-3h-7.2l-1.4,3H390l6.8-13.8h3.3L406.8,441.3z"/>
	<rect x="408.6" y="427.9" class="st0" width="2.6" height="13.2"/>
	<path class="st0" d="M408.9,440.8h2v-12.6h-2V440.8z M411.5,441.3h-3.2v-13.8h3.2V441.3z"/>
	<polygon class="st0" points="414.9,427.9 417.7,427.9 426.5,437.4 426.5,427.9 428.9,427.9 428.9,441.1 426.6,441.1 417.4,431.2 
		417.4,441.1 414.9,441.1 	"/>
	<path class="st0" d="M426.7,440.8h1.9v-12.6h-1.9v10l-9.2-10h-2.3v12.6h1.9v-10.3L426.7,440.8z M429.2,441.3h-2.8l-0.1-0.1
		l-8.7-9.3v9.4h-3v-13.8h3.1l0.1,0.1l8.3,9v-9.1h3V441.3z"/>
	<polygon class="st0" points="434.8,431.1 434.7,431.1 434.7,441.1 432.4,441.1 432.4,427.9 435.9,427.9 440,437.6 444.2,427.9 
		447.6,427.9 447.6,441.1 445.3,441.1 445.3,431.1 445.3,431.1 441,441.1 439,441.1 	"/>
	<path class="st0" d="M445.6,440.8h1.7v-12.6h-2.9l-4.4,10.2l-4.3-10.2h-3v12.6h1.7v-10h0.5l0.1,0.2l4.2,9.8h1.7l4.2-10h0.5l0,0.3
		V440.8z M447.9,441.3H445v-8.9l-3.8,8.9h-2.4l-3.8-9v9h-2.9v-13.8h3.9l0.1,0.2l3.9,9.2l4-9.3h3.9V441.3z"/>
	<polygon class="st0" points="451.1,427.9 462.9,427.9 462.9,430.1 453.7,430.1 453.7,433.1 461.6,433.1 461.6,435.4 453.7,435.4 
		453.7,438.8 463.1,438.8 463.1,441.1 451.1,441.1 	"/>
	<path class="st0" d="M451.4,440.8h11.5v-1.6h-9.5v-4.1h8v-1.6h-8v-3.6h9.3v-1.6h-11.3V440.8z M463.4,441.3h-12.6v-13.8h12.4v2.8
		h-9.3v2.5h8v2.8h-8v2.9h9.5V441.3z"/>
	<polygon class="st0" points="465.6,427.9 468.4,427.9 477.2,437.4 477.2,427.9 479.6,427.9 479.6,441.1 477.3,441.1 468.1,431.2 
		468.1,441.1 465.6,441.1 	"/>
	<path class="st0" d="M477.4,440.8h1.9v-12.6h-1.9v10l-9.2-10h-2.3v12.6h1.9v-10.3L477.4,440.8z M479.9,441.3h-2.8l-0.1-0.1
		l-8.7-9.3v9.4h-3v-13.8h3.1l0.1,0.1l8.3,9v-9.1h3V441.3z"/>
	<polygon class="st0" points="487.9,430.1 482,430.1 482,427.9 496.4,427.9 496.4,430.1 490.5,430.1 490.5,441.1 487.9,441.1 	"/>
	<path class="st0" d="M488.2,440.8h2v-11h5.9v-1.6h-13.8v1.6h5.9V440.8z M490.8,441.3h-3.2v-11h-5.9v-2.8h14.9v2.8h-5.9V441.3z"/>
	<path class="st0" d="M507.2,432c1.2,0,2.2,1,2.2,2.2c0,1.2-1,2.2-2.2,2.2c-1.2,0-2.2-1-2.2-2.2C505,433,506,432,507.2,432"/>
	<path class="st0" d="M507.2,432.3c-1.1,0-1.9,0.9-1.9,1.9c0,1.1,0.9,1.9,1.9,1.9c1.1,0,1.9-0.9,1.9-1.9
		C509.1,433.1,508.3,432.3,507.2,432.3 M507.2,436.7c-1.4,0-2.5-1.1-2.5-2.5c0-1.4,1.1-2.5,2.5-2.5c1.4,0,2.5,1.1,2.5,2.5
		C509.7,435.6,508.6,436.7,507.2,436.7"/>
	<path class="st0" d="M532.7,434.3v6.9h-1.6l-0.5-1.4c-1,0.7-2.4,1.5-4.9,1.5c-3.4,0-7.5-1.6-7.5-6.9c0-3.5,2.1-6.9,7.4-6.9
		c3,0,6.4,1.1,7,4.4H530c-0.3-0.7-1-2.2-4-2.2c-4.1,0-5.1,2.8-5.1,4.6c0,3.1,2.1,4.7,4.9,4.7c2.5,0,4-0.9,4.6-2.7h-4.6v-2.1H532.7z"
		/>
	<path class="st0" d="M525.6,427.8c-5.2,0-7.1,3.4-7.1,6.7c0,4.9,3.7,6.6,7.2,6.6c2.5,0,3.8-0.9,4.8-1.5l0.3-0.2l0.6,1.5h1.1v-6.3
		H526v1.5h4.7l-0.1,0.4c-0.7,2-2.2,2.9-4.8,2.9c-3.2,0-5.2-1.9-5.2-5c0-2.4,1.4-4.9,5.4-4.9c3,0,3.9,1.5,4.2,2.2h2.1
		C531.3,428.1,527,427.8,525.6,427.8 M525.7,441.7c-3.7,0-7.7-1.9-7.7-7.2c0-3.3,2-7.2,7.7-7.2c4,0,6.7,1.7,7.3,4.7l0.1,0.3h-3.2
		l-0.1-0.2c-0.3-0.7-0.9-2.1-3.8-2.1c-4.5,0-4.8,3.3-4.8,4.3c0,2.7,1.8,4.4,4.6,4.4c2.2,0,3.5-0.7,4.2-2.2h-4.5V434h7.6v7.5h-2
		l-0.5-1.2C529.5,440.9,528.1,441.7,525.7,441.7"/>
	<path class="st0" d="M545,435.8l-2.8-5.9l-2.8,5.9H545z M540.8,427.9h2.9l6.4,13.2h-2.7l-1.4-3h-7.6l-1.4,3h-2.7L540.8,427.9z"/>
	<path class="st0" d="M539.9,435.5h4.6l-2.3-4.9L539.9,435.5z M545.4,436.1H539l3.2-6.8L545.4,436.1z M547.6,440.8h2.1l-6.1-12.6
		h-2.6l-6.2,12.6h2.1l1.4-3h8L547.6,440.8z M550.6,441.3h-3.4l-1.4-3h-7.2l-1.4,3h-3.4l6.8-13.8h3.3L550.6,441.3z"/>
	<polygon class="st0" points="554.5,431.1 554.5,431.1 554.5,441.1 552.2,441.1 552.2,427.9 555.6,427.9 559.8,437.6 563.9,427.9 
		567.3,427.9 567.3,441.1 565.1,441.1 565.1,431.1 565,431.1 560.8,441.1 558.7,441.1 	"/>
	<path class="st0" d="M565.3,440.8h1.7v-12.6h-2.9l-4.4,10.2l-4.3-10.2h-3v12.6h1.7v-10h0.5l0.1,0.2l4.2,9.8h1.7l4.2-10h0.5l0,0.3
		V440.8z M567.6,441.3h-2.9v-8.9l-3.8,8.9h-2.4l-3.8-9v9h-2.9v-13.8h3.9l0.1,0.2l3.9,9.2l4-9.3h3.9V441.3z"/>
	<rect x="571" y="427.9" class="st0" width="2.6" height="13.2"/>
	<path class="st0" d="M571.3,440.8h2v-12.6h-2V440.8z M573.9,441.3h-3.2v-13.8h3.2V441.3z"/>
	<polygon class="st0" points="577.3,427.9 580,427.9 588.8,437.4 588.8,427.9 591.3,427.9 591.3,441.1 588.9,441.1 579.8,431.2 
		579.8,441.1 577.3,441.1 	"/>
	<path class="st0" d="M589.1,440.8h1.9v-12.6h-1.9v10l-9.2-10h-2.3v12.6h1.9v-10.3L589.1,440.8z M591.6,441.3h-2.8l-0.1-0.1
		l-8.7-9.3v9.4h-3v-13.8h3.1l0.1,0.1l8.3,9v-9.1h3V441.3z"/>
	<path class="st0" d="M608.5,434.3v6.9h-1.6l-0.5-1.4c-1,0.7-2.4,1.5-4.9,1.5c-3.4,0-7.5-1.6-7.5-6.9c0-3.5,2.1-6.9,7.4-6.9
		c3,0,6.4,1.1,7,4.4h-2.6c-0.3-0.7-1-2.2-4-2.2c-4.1,0-5.1,2.8-5.1,4.6c0,3.1,2.1,4.7,4.9,4.7c2.5,0,4-0.9,4.6-2.7h-4.6v-2.1H608.5z
		"/>
	<path class="st0" d="M601.4,427.8c-5.2,0-7.1,3.4-7.1,6.7c0,4.9,3.7,6.6,7.2,6.6c2.5,0,3.8-0.9,4.8-1.5l0.3-0.2l0.6,1.5h1.1v-6.3
		h-6.5v1.5h4.7l-0.1,0.4c-0.7,2-2.2,2.9-4.8,2.9c-3.2,0-5.2-1.9-5.2-5c0-2.4,1.4-4.9,5.4-4.9c3,0,3.9,1.5,4.2,2.2h2.1
		C607.1,428.1,602.7,427.8,601.4,427.8 M601.5,441.7c-3.7,0-7.7-1.9-7.7-7.2c0-3.3,2-7.2,7.7-7.2c4,0,6.7,1.7,7.3,4.7l0.1,0.3h-3.2
		l-0.1-0.2c-0.3-0.7-0.9-2.1-3.8-2.1c-4.5,0-4.8,3.3-4.8,4.3c0,2.7,1.8,4.4,4.6,4.4c2.2,0,3.5-0.7,4.2-2.2h-4.5V434h7.6v7.5h-2
		l-0.5-1.2C605.3,440.9,603.9,441.7,601.5,441.7"/>
	<path class="st0" d="M511.2,341.4h23.5c0,0-4.9,20.8-13.4,29.1h-6.5C514.8,370.5,521.7,353.1,511.2,341.4"/>
	<polygon class="st0" points="20.4,341.8 33.8,341.8 33.8,398.9 83.9,398.9 83.9,410.9 20.4,410.9 	"/>
	<path class="st0" d="M142.9,383.4l-14.4-30.8l-14.4,30.8H142.9z M120.8,341.8h15.4l33.5,69h-14.2l-7.2-15.9h-39.8l-7.3,15.9H86.8
		L120.8,341.8z"/>
	<polygon class="st0" points="178.6,341.8 192.9,341.8 239,391.7 239,341.8 251.9,341.8 251.9,410.9 239.6,410.9 191.5,359.2 
		191.5,410.9 178.6,410.9 	"/>
	<path class="st0" d="M295.4,399.3c23,0,31.9-7,31.9-23.2c0-16.9-9.3-22.7-31.9-22.7h-13.7v45.9H295.4z M268.2,341.8h33.2
		c21.8,0,39.3,9.2,39.3,34.1c0,23.6-16,34.9-38.7,34.9h-33.8V341.8z"/>
	<path class="st0" d="M392.1,372.5c11,0,16.6-1.6,16.6-9.8c0-8.1-5.6-9.7-16.6-9.7h-26v19.5H392.1z M352.6,341.8h41.5
		c16.3,0,28.1,3.7,28.1,20.6c0,12.7-9.1,19.7-19.3,20.3l21.2,28.1h-16.6l-20-27.1h-21.4v27.1h-13.5V341.8z"/>
	<polygon class="st0" points="459.1,383.2 425.4,341.8 441.9,341.8 465.8,371.1 489.6,341.8 506.2,341.8 472.5,383.2 472.5,410.9 
		459.1,410.9 	"/>
	<path class="st0" d="M596.2,362.8c-2.2-6.2-7.8-11.5-24.2-11.5c-9.1,0-18.3,2.3-18.3,8.6c0,2.9,1.7,6.1,15.5,7.8l16.3,2.5
		c15.5,2.4,24.6,8.4,24.6,19.9c0,16.3-15.6,22.4-34,22.4c-29.6,0-36.8-14.6-38.5-19.8l13-4.1c2.5,5,7.6,12.3,25.8,12.3
		c11,0,20.1-3.6,20.1-9.6c0-4.5-5.1-7.4-15-8.6l-16.5-2.3c-15.9-2.2-24.9-9.1-24.9-19.7c0-20.7,26.9-20.7,32.2-20.7
		c29.7,0,34.8,13.8,36.5,18.5L596.2,362.8z"/>
	<path class="st1" d="M398.8,315c-2.9,2.9-7.6,2.9-10.5,0l-50-49.9c-2.9-2.9-2.9-7.6,0-10.5l49.9-50c2.9-2.9,7.6-2.9,10.5,0l50,49.9
		c2.9,2.9,2.9,7.6,0,10.5L398.8,315z"/>
	<path class="st2" d="M83.7,315c-2.9,2.9-7.6,2.9-10.5,0l-50-49.9c-2.9-2.9-2.9-7.6,0-10.5l49.9-50c2.9-2.9,7.6-2.9,10.5,0l50,49.9
		c2.9,2.9,2.9,7.6,0,10.5L83.7,315z"/>
	<path class="st3" d="M237.8,315c-2.9,2.9-7.6,2.9-10.5,0l-50-49.9c-2.9-2.9-2.9-7.6,0-10.5l50-50c2.9-2.9,7.6-2.9,10.5,0l50,49.9
		c2.9,2.9,2.9,7.6,0,10.5L237.8,315z"/>
	<path class="st4" d="M559.6,315c-2.9,2.9-7.6,2.9-10.5,0l-50-49.9c-2.9-2.9-2.9-7.6,0-10.5l50-50c2.9-2.9,7.6-2.9,10.5,0l49.9,49.9
		c2.9,2.9,2.9,7.6,0,10.5L559.6,315z"/>
	<path class="st5" d="M394.3,259.3c1.3,0,1.7,1.1,1.7,1.1l15.3,42.9l0.2-0.2h-5.4H406v0.2v6.1v0.2h0.2H419h0.2v-0.2v-6.1v-0.2H419
		h-5.2l0.2,0.1l-12.6-33.6l-3.6-9.7c0,0-0.8-2.3-3.3-2.3c-2.5,0-3.3,2.3-3.3,2.3c0,0-3.6,9.7-3.6,9.7l-12.6,33.6l0.2-0.1h-5.6h-0.2
		v0.2v6.1v0.2h0.2H382h0.2v-0.2v-6.1v-0.2H382h-5l0.2,0.2l15.3-42.9C392.6,260.4,393,259.3,394.3,259.3"/>
	<path class="st1" d="M394.3,256.2L394.3,256.2L394.3,256.2L394.3,256.2c-1.5,0-2.7,0.6-3.6,1.6c-0.4,0.4-1,1.3-1.1,2
		c-0.4,0.9-0.9,2.3-1.7,4.5l-1.8,4.9l-12.2,32.6h-4.6h-0.2h-1.4v1.4v0.2v6.1v0.2v1.4h1.4h0.2H382h0.2h1.4v-1.4v-0.2v-6.1v-0.2v-1.4
		h-1.4H382h-2.8l14.6-40.7c0.2-0.3,0.4-0.3,0.5-0.3c0.1,0,0.4,0,0.5,0.3l14.6,40.7h-3.2H406h-1.4v1.4v0.2v6.1v0.2v1.4h1.4h0.2H419
		h0.2h1.4v-1.4v-0.2v-6.1v-0.2v-1.4h-1.4H419h-4.1l-12.2-32.6l-3.6-9.7h0C398.6,258.3,397.1,256.2,394.3,256.2 M394.3,257.6
		c2.5,0,3.3,2.3,3.3,2.3l3.6,9.7l12.6,33.4h-0.1l0.2,0.1l0-0.1h5.1h0.2v0.2v6.1v0.2H419h-12.8H406v-0.2v-6.1v-0.2h0.2h5.1l0.1,0.2
		l0.2-0.2h-0.3l-15.3-42.6c0,0-0.4-1.1-1.7-1.1c-1.3,0-1.7,1.1-1.7,1.1l-15.3,42.6h-0.2l0.2,0.2l0.1-0.2h4.7h0.2v0.2v6.1v0.2H382
		h-12.8h-0.2v-0.2v-6.1v-0.2h0.2h5.5l0,0.1l0.2-0.1h-0.1l12.6-33.4c0,0,3.6-9.7,3.6-9.7C391,259.8,391.8,257.6,394.3,257.6
		L394.3,257.6L394.3,257.6"/>
	<path class="st5" d="M110.2,261.1c0,17.5-14.2,31.7-31.7,31.7c-17.5,0-31.7-14.2-31.7-31.7c0-17.5,14.2-31.7,31.7-31.7
		C96,229.4,110.2,243.6,110.2,261.1"/>
	<path class="st6" d="M105.4,261.1c0,14.9-12.1,26.9-26.9,26.9c-14.9,0-26.9-12.1-26.9-26.9c0-14.9,12.1-26.9,26.9-26.9
		C93.3,234.2,105.4,246.3,105.4,261.1z"/>
	<path class="st2" d="M95,261.1c0,9.1-7.4,16.5-16.5,16.5c-9.1,0-16.5-7.4-16.5-16.5c0-9.1,7.4-16.5,16.5-16.5
		C87.6,244.6,95,252,95,261.1"/>
	<path class="st5" d="M46.6,228.3c0-0.7-0.6-1.3-1.3-1.3c-0.7,0-1.3,0.6-1.3,1.3v6.5c-0.5-0.3-1-0.5-1.6-0.7v-5.8
		c0-0.7-0.6-1.3-1.3-1.3c-0.7,0-1.3,0.6-1.3,1.3v5.8c-0.6,0.2-1.1,0.4-1.6,0.7v-6.5c0-0.7-0.6-1.3-1.3-1.3c-0.7,0-1.3,0.6-1.3,1.3
		v10.8c0,0,0,0.1,0,0.1c0,0.1,0,0.2,0,0.2v0.2c0,2.2,1.2,4,2.9,4.9c0,0,0,0,0,0.1v48c0,1.4,1.1,2.5,2.5,2.5c1.4,0,2.5-1.1,2.5-2.5
		v-48c0,0,0,0,0-0.1c1.7-0.9,3-2.7,3-4.9v-0.2c0-0.1,0-0.2,0-0.2c0,0,0-0.1,0-0.1V228.3z"/>
	<path class="st2" d="M45.4,225.7c-0.8,0-1.6,0.4-2.1,1c-0.5-0.6-1.2-1-2.1-1c-0.8,0-1.6,0.4-2.1,1c-0.5-0.6-1.2-1-2.1-1
		c-1.5,0-2.6,1.2-2.6,2.6v10.8v0.2l0,0c0,0,0,0.1,0,0.1v0.2c0,2.3,1.1,4.4,2.9,5.7v47.3c0,2.1,1.7,3.9,3.9,3.9
		c2.1,0,3.9-1.7,3.9-3.9v-47.3c1.8-1.3,2.9-3.4,2.9-5.7v-0.2c0-0.1,0-0.1,0-0.2l0-0.2v-10.8C48,226.9,46.8,225.7,45.4,225.7
		 M45.4,227.1c0.7,0,1.3,0.6,1.3,1.3v10.8c0,0,0,0.1,0,0.1c0,0.1,0,0.2,0,0.2v0.2c0,2.2-1.2,4-3,4.9c0,0,0,0.1,0,0.1v48
		c0,1.4-1.1,2.5-2.5,2.5c-1.4,0-2.5-1.1-2.5-2.5v-48c0,0,0,0,0-0.1c-1.7-0.9-2.9-2.8-2.9-4.9v-0.2c0-0.1,0-0.2,0-0.2
		c0,0,0-0.1,0-0.1v-10.8c0-0.7,0.6-1.3,1.3-1.3c0.7,0,1.3,0.6,1.3,1.3v6.5c0.5-0.3,1-0.5,1.6-0.7v-5.8c0-0.7,0.6-1.3,1.3-1.3
		c0.7,0,1.3,0.6,1.3,1.3v5.8c0.6,0.2,1.1,0.4,1.6,0.7v-6.5C44.1,227.6,44.7,227.1,45.4,227.1"/>
	<path class="st5" d="M122.4,236.5c0-5.1-2.8-9.3-6.3-9.3c-3.5,0-6.3,4.1-6.3,9.3c0,3.9,1.6,7.2,3.9,8.6v47.7c0,1.3,1.1,2.4,2.4,2.4
		c1.3,0,2.4-1.1,2.4-2.4V245C120.8,243.7,122.4,240.4,122.4,236.5"/>
	<path class="st2" d="M116.2,225.9c-4.2,0-7.6,4.8-7.6,10.6c0,3.9,1.5,7.4,3.9,9.3v47c0,2.1,1.7,3.8,3.7,3.8c2.1,0,3.7-1.7,3.7-3.8
		v-47c2.4-1.8,3.9-5.4,3.9-9.3C123.8,230.5,120.4,225.9,116.2,225.9 M116.2,227.2c3.5,0,6.3,4.1,6.3,9.3c0,3.9-1.6,7.2-3.9,8.6v47.7
		c0,1.3-1.1,2.4-2.4,2.4c-1.3,0-2.4-1.1-2.4-2.4V245c-2.3-1.4-3.9-4.7-3.9-8.6C109.9,231.4,112.7,227.2,116.2,227.2"/>
	<polygon class="st5" points="258.6,283.7 258.6,223.8 206.5,223.8 206.5,283.7 197.2,283.7 197.2,292.9 267.9,292.9 267.9,283.7 	
		"/>
	<path class="st3" d="M260,222.4h-1.4h-52.1h-1.4v1.4v58.5h-7.9h-1.4v1.4v9.2v1.4h1.4h70.7h1.4v-1.4v-9.2v-1.4h-1.4H260v-58.5V222.4
		z M258.6,223.8v59.9h9.3v9.2h-70.7v-9.2h9.3v-59.9H258.6z"/>
	<rect x="215.3" y="232.6" class="st3" width="4.1" height="11.1"/>
	<rect x="225.4" y="232.6" class="st3" width="4.1" height="11.1"/>
	<rect x="235.5" y="232.6" class="st3" width="4.1" height="11.1"/>
	<rect x="245.6" y="232.6" class="st3" width="4.1" height="11.1"/>
	<rect x="215.3" y="248.3" class="st3" width="4.1" height="11.1"/>
	<rect x="225.4" y="248.3" class="st3" width="4.1" height="11.1"/>
	<rect x="235.5" y="248.3" class="st3" width="4.1" height="11.1"/>
	<rect x="245.6" y="248.3" class="st3" width="4.1" height="11.1"/>
	<rect x="215.3" y="264.7" class="st3" width="4.1" height="11.1"/>
	<rect x="225.4" y="264.7" class="st3" width="4.1" height="11.1"/>
	<rect x="235.5" y="264.7" class="st3" width="4.1" height="11.1"/>
	<rect x="245.6" y="264.7" class="st3" width="4.1" height="11.1"/>
	<rect x="196.9" y="286.3" class="st3" width="71.6" height="1.4"/>
	<path class="st5" d="M576.7,286.7 M562.2,226.2l-41.8,7.4c-1,0.2-1.9,0.7-2.4,1.6c-0.6,0.8-0.8,1.8-0.6,2.8l10.1,57.5
		c0.2,1,0.7,1.9,1.5,2.4c0.8,0.6,1.8,0.8,2.8,0.6l41.8-7.4c1.8-0.3,3.1-1.9,3.1-3.7c0-0.2,0-0.5-0.1-0.7l-10.1-57.5
		c-0.2-1-0.7-1.8-1.6-2.4C564.2,226.2,563.2,226,562.2,226.2"/>
	<path class="st4" d="M562.9,224.7c-0.3,0-0.6,0-0.9,0.1l-41.8,7.4c-1.3,0.2-2.5,1-3.3,2.1c-0.8,1.1-1.1,2.5-0.8,3.9l10.1,57.4
		c0.2,1.4,1,2.5,2.1,3.3c0.9,0.6,1.9,0.9,3,0.9c0.3,0,0.6,0,0.8-0.1l41.8-7.4c2.5-0.4,4.2-2.5,4.2-5c0-0.3,0-0.6-0.1-0.9L567.9,229
		c-0.2-1.3-1-2.5-2.1-3.3C564.9,225.1,563.9,224.7,562.9,224.7 M562.9,226.1c0.8,0,1.5,0.2,2.2,0.7c0.8,0.6,1.4,1.5,1.6,2.4
		l10.1,57.5c0,0.2,0.1,0.4,0.1,0.7c0,1.8-1.3,3.4-3.1,3.7l-41.8,7.4c-0.2,0-0.4,0-0.6,0c-0.8,0-1.5-0.2-2.2-0.7
		c-0.8-0.6-1.4-1.4-1.5-2.4l-10.1-57.5c-0.2-1,0-2,0.6-2.8c0.6-0.8,1.4-1.4,2.4-1.6l41.8-7.4C562.4,226.1,562.6,226.1,562.9,226.1"
		/>
	<polygon class="st4" points="534.1,290.6 525.2,240.2 560,234 568.9,284.5 	"/>
	<polygon class="st7" points="534.1,290.6 525.2,240.2 560,234 568.9,284.5 	"/>
	<path class="st5" d="M545.5,223.2l-15.1,56.4c-0.3,1-0.1,2,0.4,2.8c0.5,0.9,1.3,1.5,2.3,1.8l41,11c2,0.5,4.1-0.7,4.6-2.7l15.1-56.4
		c0.5-2-0.7-4.1-2.7-4.6l-41-11C548.1,220,546.1,221.2,545.5,223.2"/>
	<path class="st4" d="M549.2,219.1c-2.3,0-4.4,1.6-5,3.8l-15.1,56.4c-0.4,1.3-0.2,2.7,0.5,3.9c0.7,1.2,1.8,2,3.1,2.4l41,11
		c0.4,0.1,0.9,0.2,1.3,0.2c2.3,0,4.4-1.6,5-3.8l15.1-56.4c0.4-1.3,0.2-2.7-0.5-3.9c-0.7-1.2-1.8-2-3.1-2.4l-41-11
		C550.1,219.1,549.6,219.1,549.2,219.1 M549.2,220.4c0.3,0,0.7,0,1,0.1l41,11c2,0.5,3.2,2.6,2.7,4.6l-15.1,56.4
		c-0.5,1.7-2,2.8-3.6,2.8c-0.3,0-0.7,0-1-0.1l-41-11c-1-0.3-1.8-0.9-2.3-1.8c-0.5-0.9-0.6-1.9-0.4-2.8l15.1-56.4
		C546,221.6,547.5,220.4,549.2,220.4"/>
	<polygon class="st4" points="538.4,278.1 551.7,228.6 585.8,237.7 572.5,287.2 	"/>
	<polygon class="st7" points="538.4,278.1 551.7,228.6 585.8,237.7 572.5,287.2 	"/>
	<path class="st5" d="M553.8,234.5c0.2,0.1,0.4,0.1,0.7,0.2c0.3,0.1,0.5,0.1,0.7,0.2l-0.3-2L553.8,234.5z M551.7,235.9l0.1-0.3
		c0.2,0,0.3,0.1,0.3,0.1c0,0,0.1,0,0.1,0c0,0,0.1,0,0.1-0.1c0,0,0.2-0.2,0.4-0.4c0.1-0.1,0.3-0.4,0.6-0.8l1.5-2l0.5-0.7l0.5,0.1
		l0.6,4l0.1,0.5l0.1,0.3c0,0,0,0.1,0,0.1c0,0,0,0,0.1,0.1c0,0,0.1,0,0.2,0.1c0,0,0.1,0,0.1,0.1l-0.1,0.3l-0.9-0.3l-1.2-0.3l0.1-0.3
		c0.3,0.1,0.5,0.1,0.5,0.1c0,0,0.1,0,0.1-0.1c0-0.1,0-0.2,0-0.3l-0.1-0.8l-1.8-0.5l-0.2,0.4c-0.2,0.3-0.3,0.5-0.3,0.5
		c0,0.1,0,0.1,0,0.1c0,0,0.2,0.1,0.5,0.2l-0.1,0.3l-0.8-0.2L551.7,235.9z"/>
	<polygon class="st5" points="569.2,259.4 564.1,246.9 553.5,255.3 558.6,267.6 	"/>
	<polygon class="st5" points="555.7,241.4 554.1,237.4 550.8,240.1 552.4,244 	"/>
	<polygon class="st5" points="535.3,250.5 532.3,247.5 530.3,251.2 533.3,254.2 	"/>
	<path class="st5" d="M570.2,281.1c-0.2-0.1-0.4-0.1-0.7-0.2c-0.3-0.1-0.5-0.1-0.7-0.2l0.3,2L570.2,281.1z M572.2,279.7l-0.1,0.3
		c-0.2,0-0.3,0-0.3,0c0,0-0.1,0-0.1,0c0,0-0.1,0-0.1,0.1c0,0-0.2,0.2-0.4,0.5c-0.1,0.1-0.3,0.4-0.6,0.7l-1.5,2l-0.5,0.7l-0.5-0.1
		l-0.6-4l-0.1-0.5l0-0.3c0-0.1,0-0.1,0-0.1c0,0,0,0-0.1-0.1c0,0-0.1,0-0.2-0.1c0,0-0.1,0-0.2-0.1l0.1-0.3l0.9,0.3l1.2,0.3l-0.1,0.3
		c-0.3-0.1-0.5-0.1-0.5-0.1c-0.1,0-0.1,0-0.1,0.1c0,0.1,0,0.2,0,0.3l0.1,0.8l1.8,0.5l0.3-0.4c0.2-0.3,0.3-0.5,0.3-0.6
		c0,0,0-0.1,0-0.1c0-0.1-0.2-0.1-0.5-0.2l0.1-0.3l0.8,0.2L572.2,279.7z"/>
	<polygon class="st5" points="568.2,274.2 569.8,278.1 573.2,275.5 571.6,271.6 	"/>
	<path class="st5" d="M530.8,245.3c0,0.2,0.1,0.5,0.2,0.6c0.1,0.1,0.3,0.1,0.5,0.1c0.1,0,0.4-0.1,0.4,0.1c0,0.1-0.2,0.2-0.3,0.2
		c-0.2,0-0.5,0-0.7,0.1c-0.3,0-0.6,0.1-0.8,0.1c-0.2,0-0.4,0.1-0.6,0.1c-0.2,0-0.4,0.1-0.6,0.1c-0.1,0-0.2,0-0.3-0.1
		c0-0.2,0.2-0.2,0.3-0.2c0.2,0,0.3-0.1,0.5-0.2c0.2-0.1,0.1-0.4,0.1-0.6l-0.5-2.8c0-0.1,0-0.3-0.1-0.4c0-0.1-0.1-0.1-0.2-0.1
		c-0.1,0-0.1,0-0.2,0.1l-0.3,0.2c-0.1,0.1-0.3,0.1-0.3,0.1c-0.1,0-0.2,0-0.2-0.1c0-0.2,0.3-0.3,0.5-0.4c0.5-0.2,1.1-0.5,1.6-0.8
		c0,0,0.1-0.1,0.1-0.1c0.1,0,0.2,0.2,0.2,0.3L530.8,245.3z"/>
	<path class="st5" d="M534.3,243.3c-0.1-0.4-0.2-1-0.4-1.4c-0.1-0.4-0.4-0.9-0.9-0.8c-0.4,0.1-0.4,0.6-0.5,1c0,0.4,0,0.8,0.1,1.2
		c0.1,0.5,0.2,1.1,0.4,1.5c0.1,0.3,0.4,1,0.8,0.9C534.7,245.5,534.4,243.8,534.3,243.3 M532.4,245.3c-0.4-0.5-0.7-1.1-0.8-1.6
		c-0.1-0.6-0.1-1.2,0.2-1.7c0.2-0.6,0.7-1.1,1.3-1.2c1.3-0.2,2.2,1.1,2.4,2.3c0.2,1.2-0.2,2.6-1.5,2.9
		C533.3,246,532.8,245.7,532.4,245.3"/>
	<path class="st0" d="M615.5,344.7c0.7,0,1.6,0,1.6-0.9c0-0.8-0.6-0.9-1.2-0.9h-1.2v1.9H615.5z M614.6,347.8h-0.8v-5.6h2.2
		c1.3,0,1.8,0.5,1.8,1.6c0,1-0.7,1.4-1.3,1.6l1.6,2.5h-0.9l-1.5-2.5h-1.1V347.8z M619.6,345c0-2.3-1.7-4.1-4-4.1c-2.3,0-4,1.8-4,4.1
		c0,2.3,1.7,4.1,4,4.1C617.9,349.1,619.6,347.3,619.6,345 M620.4,345c0,2.6-2.1,4.7-4.7,4.7c-2.6,0-4.7-2.1-4.7-4.7
		c0-2.6,2.1-4.7,4.7-4.7C618.2,340.3,620.4,342.4,620.4,345"/>
	<path class="st5" d="M416.8,284l-2.9-3.5c0.3-0.3,0.6-0.6,0.9-0.9c1.6-1.6,3-3.4,4.2-5.3l3.9,2.2
		C421.2,279.4,419.2,281.9,416.8,284 M408.7,289.5l-1.6-4.2c1.9-0.9,3.6-2,5.2-3.3l2.9,3.4C413.2,287,411,288.4,408.7,289.5
		 M401.7,271.1l1.6,0.1l7.6,9.1c-1.4,1.1-3,2.1-4.6,2.9L401.7,271.1z M395.4,292.7v-4.4c2.7-0.1,5.3-0.6,7.8-1.4l1.6,4.2
		C401.8,292,398.6,292.6,395.4,292.7 M395.3,231.6c2.5,0.1,5,0.6,7.3,1.3l-3.5,9.6l-2.3,1.5l-1.5-2V231.6z M395.3,225.4
		c3.2,0.1,6.4,0.7,9.4,1.7l-1.4,3.9c-2.6-0.9-5.3-1.3-8-1.5V225.4z M406.7,227.8c3,1.2,5.8,2.8,8.3,4.8l-2.7,3.3
		c-2.1-1.7-4.5-3.1-7-4.1L406.7,227.8z M422.8,241.3l-3.8,2.2c-1.2-1.9-2.6-3.7-4.2-5.3c-0.3-0.3-0.6-0.6-0.9-0.9l2.8-3.3
		C419,236.1,421.1,238.6,422.8,241.3 M427.1,252.1l-4.4,0.8c-0.5-2.6-1.5-5.2-2.7-7.6l3.8-2.2C425.4,245.9,426.5,249,427.1,252.1
		 M427.9,259.1c0,1.6-0.1,3.1-0.3,4.7l-4.4-0.8c0.2-1.3,0.3-2.7,0.3-4.1c0-1.3-0.1-2.6-0.3-4l4.4-0.8
		C427.8,255.8,427.9,257.4,427.9,259.1 M408.8,266.1l-0.9-2.1l2.3-1.1l10.5,1.8c-0.5,2.4-1.3,4.7-2.5,6.8L408.8,266.1z M408.1,268.1
		l9.1,5.3c-1.3,2-2.8,3.9-4.6,5.6l-7.1-8.4l-0.1-2.1L408.1,268.1z M408.3,249.6l-2.8-0.4l0.1-2.2l6.9-8.2c0.3,0.2,0.5,0.5,0.8,0.7
		c1.5,1.5,2.8,3.1,3.9,4.9L408.3,249.6z M421.1,255.3c0.2,1.1,0.2,2.4,0.2,3.6c0,1.2-0.1,2.5-0.2,3.7l-10.5-1.8l-1.7-1.9l1.6-1.7
		L421.1,255.3z M410.5,255l-2.4-1.2l0.9-2.1l9.3-5.4c1.1,2.2,1.9,4.5,2.5,6.9L410.5,255z M402.4,284.9c-2.3,0.7-4.6,1.2-7,1.3v-11.6
		l0.9-1.1l2.3,1.5L402.4,284.9z M401,243.6l3.6-9.9c2.3,1,4.4,2.2,6.3,3.7l-6.5,7.8l-2.7,0.6L401,243.6z M424,274.8l-3.9-2.3
		c1.3-2.4,2.2-4.9,2.7-7.5l4.4,0.8C426.5,269,425.5,272,424,274.8 M393.3,286.2c-2.5-0.1-4.9-0.4-7.2-1.1l4.2-11.2l0.9-0.6l2.2,2.9
		L393.3,286.2z M393.3,292.7c-3.2-0.1-6.4-0.6-9.4-1.6l1.5-4c2.6,0.8,5.2,1.2,7.9,1.3V292.7z M382.2,283.6c-1.4-0.7-3-1.5-4.7-2.8
		l7.6-9l1.2-0.1l0.1,0.5L382.2,283.6z M380,289.5c-2.3-1-4.5-2.3-6.5-3.9l2.7-3.2c1.7,1.3,3.4,2.3,5.3,3.2L380,289.5z M365.7,276.9
		l3.6-2.1c1.1,1.8,2.5,3.4,3.9,4.9c0.5,0.5,0.9,0.9,1.4,1.3l-2.7,3.2C369.5,282.1,367.4,279.6,365.7,276.9 M361.3,266l4-0.7
		c0.6,2.7,1.6,5.3,2.9,7.7l-3.5,2C363.1,272.2,361.9,269.2,361.3,266 M360.5,259.1c0-1.6,0.1-3.2,0.3-4.8l3.9,0.7
		c-0.2,1.3-0.2,2.6-0.2,3.9c0,1.5,0.1,2.9,0.3,4.3l-4,0.7C360.7,262.3,360.5,260.7,360.5,259.1 M364.5,243.2l3.4,2
		c-1.3,2.4-2.2,5-2.8,7.7l-3.9-0.7C361.9,249.1,363,246,364.5,243.2 M371.9,233.9l2.5,3.1c-2.1,1.9-3.9,4-5.4,6.4l-3.4-2
		C367.3,238.6,369.4,236.1,371.9,233.9 M381.7,227.8l1.4,3.8c-2.6,1-5,2.4-7.2,4.2l-2.6-3C375.8,230.7,378.7,229,381.7,227.8
		 M385.8,232.8c2.4-0.7,4.8-1.2,7.3-1.2v10.3l-1.6,2l-2.3-1.5L385.8,232.8z M384.9,268.5l0.2,0l-0.1,0.1L384.9,268.5z M378.7,263
		l1.2,0.6l-1.3,2.9l-0.3,0.6L370,272c-1.2-2.2-2.1-4.6-2.6-7L378.7,263z M378,257.3l1,1.1l-2.6,2.7l-9.5,1.7c-0.2-1.4-0.3-2.7-0.3-4
		c0-1.1,0.1-2.3,0.2-3.5L378,257.3z M379.3,251.7l0.7,1.6l-3.1,1.6l0,0l-9.6-1.7c0.5-2.5,1.4-4.8,2.5-7.1L379.3,251.7z M377.2,237.3
		c2-1.6,4.2-2.8,6.6-3.8l3.6,9.9l-0.7,2.2l-3.1-0.8L377.2,237.3z M382.6,246.7l0.1,2.3l-3.3,0.4l-8.5-4.9c1.1-1.7,2.4-3.3,3.8-4.8
		c0.4-0.4,0.7-0.7,1.1-1L382.6,246.7z M375.9,279.4c-0.4-0.4-0.9-0.8-1.3-1.2c-1.4-1.3-2.5-2.8-3.6-4.4l10.1-5.8l1.5,0.2v3.3
		L375.9,279.4z M393.1,225.4v4.1c-2.7,0.1-5.4,0.5-8,1.4l-1.4-3.8C386.7,226.1,389.9,225.5,393.1,225.4 M430.5,259
		c0-20-16.3-36.2-36.2-36.2c-20,0-36.2,16.2-36.2,36.2c0,14.5,8.6,27.1,21,32.8l-4.5,12.1l3.9,1.5l4.4-12c3.6,1.2,7.4,1.8,11.3,1.8
		c4,0,7.8-0.7,11.4-1.9l4.6,12.1l3.9-1.5l-4.7-12.2C421.9,286.1,430.5,273.6,430.5,259"/>
	<polygon class="st1" points="394.1,253.9 393,257.3 389.4,257.3 392.3,259.4 391.2,262.8 394.1,260.7 397,262.8 395.9,259.4 
		398.8,257.3 395.2,257.3 	"/>
</g>
</svg>
