<svg width="424" height="63" viewBox="0 0 424 63" fill="none" xmlns="http://www.w3.org/2000/svg">
<path d="M104.644 1.69595C110.023 1.58516 115.698 1.67778 121.1 1.67953C123.134 5.41103 126.585 10.6664 128.908 14.4471L145.108 40.8552C144.597 28.4326 144.819 14.307 144.739 1.69478C149.328 1.60186 154.128 1.68334 158.733 1.69595C158.529 6.6025 158.717 12.6006 158.698 17.6332C158.644 31.3091 158.749 45.0082 158.693 58.6847C158.689 59.6648 158.783 60.5031 158.183 61.0799L142.39 61.1362L117.97 21.4456C118.525 26.0763 118.429 31.8853 118.488 36.6333C118.599 44.781 118.65 52.9296 118.641 61.0778L104.666 61.1189L104.644 1.69595Z" fill="#FEFEFE"/>
<path d="M14.0253 1.64833C27.0571 1.61638 44.4041 1.18284 45.2235 18.954C45.8652 32.8722 35.1089 38.2521 22.6337 38.6405L14.6073 38.6708L14.5975 61.0751L0.104357 61.0936C-0.123272 41.4527 0.0927335 21.3745 0.0906849 1.69716L14.0253 1.64833ZM30.829 19.4843C30.5257 12.0597 19.9034 13.3919 14.6346 13.3456L14.6483 27.2528C19.2742 27.2511 25.0395 27.8051 28.8036 24.9325C30.4444 23.0699 30.9326 22.0208 30.829 19.4843Z" fill="#FEFEFE"/>
<path d="M319.913 1.66992L359.851 1.68721L359.859 13.7845L333.832 13.7736L333.847 24.935C342.05 24.8943 350.256 24.9007 358.459 24.9541C358.553 28.6902 358.462 32.7547 358.447 36.5155C355.386 36.5859 335.194 36.2479 333.952 36.8866L333.829 37.6457L333.826 48.7813L361.339 48.798L361.342 60.9753C347.88 61.3176 333.545 60.963 319.931 61.0987L319.913 1.66992Z" fill="#6BAEDF"/>
<path d="M219.536 1.69573C232.585 1.44073 246.463 1.66173 259.562 1.69046L259.547 13.7977C251.019 13.9598 242.019 13.8704 233.464 13.8159L233.449 24.9259L258.038 24.9031L258.047 36.5583L242.774 36.5255C240.284 36.5223 236.136 36.4053 233.801 36.6568L233.449 37.1097C233.517 40.9467 233.455 44.922 233.446 48.7699L260.997 48.7561C260.909 52.8153 260.95 57.0416 260.933 61.1148C247.248 60.9607 233.297 61.099 219.595 61.1052C219.674 41.3019 219.656 21.4987 219.536 1.69573Z" fill="#FEFEFE"/>
<path d="M53.8291 1.6951C66.8952 1.45974 80.6709 1.66169 93.7771 1.69188C93.6734 5.60042 93.759 9.86917 93.7607 13.805C85.0719 13.8563 76.3827 13.8568 67.6941 13.8064L67.6868 24.9461L92.3296 24.9329L92.3363 36.5337C84.8896 36.6351 74.8698 35.8997 67.6927 36.6386L67.671 48.7977L95.2727 48.7807C95.1702 52.7977 95.2276 57.0269 95.2232 61.0612C81.5533 61.2388 67.5638 61.089 53.8593 61.1262L53.8291 1.6951Z" fill="#FEFEFE"/>
<path d="M396.539 0.3047C405.841 -1.07787 415.752 2.33239 422.511 8.75107C419.306 12.0391 416.074 15.3016 412.819 18.5381C412.687 18.3942 412.556 18.2535 412.418 18.116C405.829 11.4605 395.517 11.4186 388.784 17.9401C381.841 24.6692 382.002 38.1403 388.954 44.9241C392.08 47.9663 396.29 49.6361 400.652 49.5631C406.107 49.4792 409.564 47.167 413.171 43.4308C414.398 44.6694 415.799 45.9632 417.067 47.1816L423.114 52.9095C417.776 58.2117 412.813 61.1767 405.24 62.2723C396.375 63.5031 387.015 61.7726 379.857 56.2713C360.592 41.4608 365.399 8.39583 389.461 1.6521C392.021 0.933998 393.932 0.630045 396.539 0.3047Z" fill="#6BAEDF"/>
<path d="M289.096 0.319302C297.501 -0.488784 304.521 2.40943 311.036 7.44758C307.948 10.565 304.878 13.8745 301.852 17.0646C298.638 13.9932 295.397 12.1035 290.783 12.0514C287.862 12.0185 282.366 13.9117 282.715 17.5942C283.28 23.5351 291.589 24.4646 296.039 26.2947C299.232 27.6084 302.341 28.6167 305.007 30.9304C312.451 36.9596 312.105 48.529 306.032 55.4019C301.257 60.805 294.97 62.1621 287.947 62.6076C278.871 62.4593 272.262 60.0382 265.479 54.0774C268.397 50.9221 271.852 47.5567 274.887 44.4616C275.396 44.9894 275.918 45.5041 276.451 46.0053C279.873 49.1779 284.024 50.7949 288.712 50.7C292.482 50.6235 296.534 48.0641 296.013 43.9275C295.292 38.1912 285.404 36.8215 281.045 34.8806C277.746 33.6437 274.813 32.0096 272.332 29.4517C267.044 24.0038 267.398 13.6365 272.191 7.89895C276.519 2.72187 282.51 0.970285 289.096 0.319302Z" fill="#6BAEDF"/>
<path d="M165.084 1.69547C180.801 1.41643 197.285 1.66059 213.067 1.68785C212.965 5.72564 213.018 9.88389 213.029 13.9328L196.303 13.9598L196.309 44.607L196.324 61.0536L181.93 61.1237L181.926 13.9302C176.478 14.0354 170.571 13.9325 165.093 13.9302L165.084 1.69547Z" fill="#FEFEFE"/>
</svg>
