<svg width="600" height="600" viewBox="0 0 600 600" fill="none" xmlns="http://www.w3.org/2000/svg">
<g clip-path="url(#clip0_1408_4383)">
<path d="M600 600H0V0H600V600ZM208 250C203.582 250 200 253.582 200 258V342C200 346.418 196.418 350 192 350H108C103.582 350 100 353.582 100 358V442C100 446.418 103.582 450 108 450H292C296.418 450 300 446.418 300 442V258C300 253.582 296.418 250 292 250H208ZM308 150C303.582 150 300 153.582 300 158V242C300 246.418 303.582 250 308 250H392C396.418 250 400 253.582 400 258V342C400 346.418 403.582 350 408 350H492C496.418 350 500 346.418 500 342V158C500 153.582 496.418 150 492 150H308ZM108 150C103.582 150 100 153.582 100 158V242C100 246.418 103.582 250 108 250H192C196.418 250 200 246.418 200 242V158C200 153.582 196.418 150 192 150H108Z" fill="white"/>
</g>
<defs>
<clipPath id="clip0_1408_4383">
<rect width="600" height="600" rx="40" fill="white"/>
</clipPath>
</defs>
</svg>
