<svg width="600" height="600" viewBox="0 0 600 600" fill="none" xmlns="http://www.w3.org/2000/svg">
<rect width="600" height="600" rx="40" fill="white"/>
<path d="M300 442C300 446.419 296.418 450 292 450H108C103.582 450 100 446.419 100 442V358C100 353.582 103.582 350 108 350H192C196.418 350 200 346.419 200 342V258C200 253.582 203.582 250 208 250H292C296.418 250 300 253.582 300 258V442Z" fill="#171717"/>
<path d="M492 150C496.418 150 500 153.582 500 158L500 342C500 346.419 496.418 350 492 350L408 350C403.582 350 400 346.419 400 342L400 258C400 253.582 396.418 250 392 250L308 250C303.582 250 300 246.419 300 242L300 158C300 153.582 303.582 150 308 150L492 150Z" fill="#171717"/>
<rect x="100" y="150" width="100" height="100" rx="8" fill="#171717"/>
</svg>
