<svg width="400" height="300" viewBox="0 0 400 300" fill="none" xmlns="http://www.w3.org/2000/svg">
<path d="M200 292C200 296.419 196.418 300 192 300H8C3.58173 300 0 296.419 0 292V208C0 203.582 3.58172 200 8 200H92C96.4183 200 100 196.419 100 192V108C100 103.582 103.582 100 108 100H192C196.418 100 200 103.582 200 108V292Z" fill="white"/>
<path d="M392 0.000235748C396.418 0.000235555 400 3.58196 400 8.00024L400 192C400 196.419 396.418 200 392 200L308 200C303.582 200 300 196.419 300 192L300 108C300 103.582 296.418 100 292 100L208 100C203.582 100 200 96.4185 200 92.0002L200 8.00024C200 3.58196 203.582 0.000243984 208 0.000243791L392 0.000235748Z" fill="white"/>
<rect width="100" height="100" rx="8" fill="white"/>
</svg>
